PathFileType	4	(X/Y/Z)	D:\TRACE\v60_Jaco2_6-2-23\BothDRS_Motion1_5-v60.trc
DataRate	CameraRate	NumFrames	NumMarkers	Units	OrigDataRate	OrigDataStartFrame	OrigNumFrames
100.00	100.00	      35	9	mm	100.00	4290	      6863
Frame#	Time	front left toe			Front right toe			aft left toe			aft right toe			Arm			FL body			FR body			AL Body			AR Body			
		X1	Y1	Z1	X2	Y2	Z2	X3	Y3	Z3	X4	Y4	Z4	X5	Y5	Z5	X6	Y6	Z6	X7	Y7	Z7	X8	Y8	Z8	X9	Y9	Z9	

4290	42.890	-218.05077	128.69354	-286.77173	167.79419	6.53976	-305.05945	-219.74506	21.57871	317.72845	166.71747	149.23347	335.92184	51.01008	1092.09106	-585.87469	-116.32018	563.00940	-427.85373	43.26596	564.13098	-431.42612	-97.77836	562.64258	518.02795	59.26509	557.42279	515.63428	
4291	42.900	-218.27498	124.43690	-283.45413	168.68034	6.53286	-305.04175	-218.94269	21.61411	317.59213	166.44096	145.56665	339.74442	51.64236	1091.75037	-585.07867	-116.29030	562.44165	-427.21442	43.65441	563.53271	-430.05173	-97.77164	562.68134	518.99854	59.52789	557.96777	516.81738	
4292	42.910	-217.64458	119.10208	-280.54980	169.50948	6.39367	-304.92874	-217.99155	21.46852	317.66000	165.98045	140.47154	343.42630	52.72241	1091.38770	-584.02057	-115.91591	562.16443	-426.40271	44.25819	563.29688	-428.93530	-98.07410	563.10870	519.99194	59.31119	558.50598	517.89142	
4293	42.920	-216.39558	112.78137	-277.80579	170.55751	6.21197	-304.98083	-216.97739	21.24763	317.65201	165.39211	134.20793	346.74670	53.88073	1091.07983	-582.68121	-114.10536	561.28711	-424.84955	45.53034	562.97668	-427.96698	-98.10074	563.22552	521.03137	59.37869	558.77039	519.13580	
4294	42.930	-215.93373	106.26772	-275.34418	171.27576	6.14311	-304.97510	-216.05199	21.24051	317.69736	164.58273	126.55301	349.22272	54.01141	1090.92749	-582.28180	-113.95790	561.25836	-424.12070	46.42404	562.82056	-426.90485	-98.07510	563.35046	522.01227	58.81472	559.03210	520.26056	
4295	42.940	-215.97166	99.10668	-273.26694	172.44655	6.15609	-304.81326	-215.79448	21.98594	317.66565	164.29718	118.33402	351.83145	54.52336	1090.62939	-581.21667	-113.35379	560.97754	-423.25903	47.26242	562.52161	-425.49103	-97.84839	563.48505	523.00867	58.91640	558.99847	521.41425	
4296	42.950	-216.50386	91.58504	-271.05350	172.93936	6.09123	-304.82278	-214.73143	21.97231	317.54950	163.77110	109.01331	354.32938	54.72420	1090.39111	-580.44653	-112.20907	560.76740	-422.21207	48.20601	562.33264	-424.64236	-98.46667	564.21344	524.27344	58.80743	559.32574	522.66901	
4297	42.960	-217.16547	83.48411	-268.82980	174.14186	5.94053	-304.74960	-213.81108	21.76370	317.35843	163.08475	99.09441	356.85571	54.86422	1089.95667	-579.78131	-111.51632	560.61517	-421.55698	49.37429	562.14697	-423.54935	-98.63206	564.02985	525.28937	58.97580	559.16394	523.68719	
4298	42.970	-217.33865	74.87309	-266.52707	175.36349	6.08654	-304.64407	-213.33681	21.88698	317.55252	162.24362	88.61737	359.77948	56.27612	1089.67334	-578.81439	-109.65333	559.77454	-420.05054	49.35168	561.86676	-422.66116	-98.66647	564.19965	526.05328	59.16865	559.23364	526.80200	
4299	42.980	-217.39595	65.60545	-263.89761	175.90164	5.70450	-304.77655	-213.35922	22.56581	317.20056	160.36771	78.28441	362.18317	57.07469	1089.42188	-578.25073	-110.05352	560.01508	-419.86066	50.82086	561.55591	-421.60019	-98.32322	564.06854	526.95215	58.54271	559.42975	527.12274	
4300	42.990	-216.90041	56.04097	-261.71378	176.75414	5.37974	-304.81284	-212.25476	22.36316	317.03754	159.95227	68.78624	364.04785	58.18826	1089.26636	-577.25977	-108.89831	559.43970	-418.62650	51.14632	561.32605	-420.72977	-97.83312	564.24200	527.68982	59.42200	559.40900	528.79333	
4301	43.000	-216.67136	47.16662	-260.09457	177.78325	5.57114	-304.44250	-211.07945	22.39773	317.22165	159.69664	59.42066	364.73392	59.76472	1088.75232	-576.27118	-108.55334	559.59308	-418.25262	51.78464	560.92322	-419.51706	-97.72464	564.68335	528.93115	59.38039	559.80695	528.71643	
4302	43.010	-216.94016	38.93440	-259.55414	178.58214	5.61946	-304.51379	-210.13960	22.42839	317.11469	160.81644	50.78852	364.93463	61.26310	1088.68799	-575.55383	-107.26603	559.34241	-417.12967	53.08379	560.96381	-419.08374	-97.55225	564.78125	529.46222	59.57960	559.67151	529.23285	
4303	43.020	-217.05618	30.57192	-259.47498	179.58511	5.36930	-304.68723	-209.05333	22.31805	317.03317	161.45712	42.75133	364.28986	62.79441	1088.06934	-575.02008	-106.98406	559.26495	-416.65378	53.36995	560.67999	-417.75772	-96.63241	563.96045	529.66449	59.70438	559.48645	529.99023	
4304	43.030	-216.57095	23.18054	-260.22369	180.37445	5.36852	-304.43942	-208.48610	22.44514	317.21396	162.52895	35.06326	363.26617	63.78859	1087.62451	-574.30438	-105.58112	558.97949	-415.74316	54.88285	560.48193	-417.41232	-96.28557	563.77258	530.35327	60.06611	559.08887	530.67896	
4305	43.040	-216.12328	17.01560	-261.64072	181.32735	5.13886	-304.42157	-207.44156	22.14499	317.29391	162.82509	31.20304	360.99860	64.99338	1087.63928	-573.57410	-104.14243	558.70264	-414.98795	55.63134	560.41418	-416.79523	-95.91644	563.34760	531.12317	60.45293	558.75958	531.34308	
4306	43.050	-215.46399	11.15697	-263.01859	182.32655	5.16237	-304.33783	-206.25330	22.20175	317.18472	165.19943	30.68621	360.20703	66.70275	1087.75720	-572.55151	-103.98991	558.99695	-414.87305	56.27372	560.21948	-415.93250	-95.37840	563.75989	531.17322	60.67891	559.13928	531.93878	
4307	43.060	-215.43120	9.85861	-265.24130	183.46695	5.21969	-304.20059	-205.58804	22.71871	317.10907	166.54108	30.64339	360.68066	67.59676	1088.21814	-572.23010	-101.97727	558.08911	-414.24152	57.71273	559.56366	-415.30524	-95.58321	564.78210	531.67871	60.70752	560.43530	532.29041	
4308	43.070	-214.80026	6.89870	-264.83295	184.29491	5.23368	-303.85767	-204.25136	23.08332	317.08856	167.40289	31.55903	360.45367	69.48825	1088.15002	-572.10394	-100.86379	558.30396	-413.75662	58.94867	559.63373	-415.29596	-95.91054	566.64490	532.50336	61.22510	561.69952	533.17596	
4309	43.080	-214.05925	6.90003	-265.31927	184.91570	5.90202	-304.44232	-203.07625	23.64574	316.69284	167.28856	30.76045	361.85464	70.63867	1088.03418	-573.22736	-99.66338	559.83105	-413.25775	60.06393	560.63116	-414.02359	-95.50598	567.86603	533.29413	61.79938	562.21149	533.42529	
4310	43.090	-212.64073	6.49876	-264.81693	183.67743	8.89040	-303.61200	-202.30997	27.50253	316.67993	168.78993	29.97546	361.33798	72.29832	1087.98438	-573.88574	-98.88150	561.24072	-413.39722	61.52646	561.85938	-413.91550	-95.10952	568.33136	533.50378	62.31139	562.69757	534.15802	
4311	43.100	-211.71344	6.81416	-264.66159	181.20547	12.25458	-300.40427	-199.04126	30.44457	319.28619	169.81252	30.18029	360.83401	73.39891	1088.16577	-573.42688	-96.86259	561.72424	-412.69400	62.85734	562.98004	-413.65598	-95.05010	568.55109	533.39270	62.53973	563.34186	534.33990	
4312	43.110	-211.06496	7.05934	-265.73676	178.64375	20.75118	-298.69095	-195.06232	37.85525	321.36734	170.69615	30.44729	360.82776	75.19544	1089.19568	-571.75299	-96.80688	562.55304	-413.22937	63.40981	563.08203	-413.74008	-94.24749	569.58276	533.40149	63.13798	564.29834	534.24719	
4313	43.120	-210.01289	6.41313	-265.22839	178.25275	29.16714	-296.99118	-191.78423	48.86220	321.04971	171.79025	30.81401	360.84137	77.15611	1091.03357	-571.06244	-95.93610	562.13623	-413.09485	64.09527	562.19189	-413.19586	-93.65501	570.54523	533.45691	63.95112	564.97357	534.29822	
4314	43.130	-209.10165	6.22658	-264.94226	177.65921	40.80747	-297.04700	-190.46361	59.69918	321.99478	172.43394	30.58636	360.65988	79.61062	1091.98523	-571.10211	-95.67471	562.11047	-412.82095	65.02287	561.84271	-413.40976	-92.35556	571.21350	534.13776	65.09959	565.32257	534.62256	
4315	43.140	-207.93431	6.21664	-265.00095	178.33672	53.01494	-296.80606	-192.18025	73.44927	322.06326	173.75392	30.59889	361.07590	81.98777	1091.18372	-570.95709	-95.33884	561.96130	-412.50226	65.47073	561.70337	-413.31305	-91.00731	571.07501	534.22748	66.30540	565.16663	535.07611	
4316	43.150	-207.35172	6.04731	-264.95889	179.28679	65.88309	-296.18619	-193.75900	84.43700	322.97006	174.88664	30.25350	360.92944	83.06657	1089.27917	-571.24219	-94.37092	561.69904	-411.95404	65.90976	561.57709	-413.05447	-90.05731	570.84253	534.57727	67.62257	564.83386	535.34137	
4317	43.160	-206.47420	5.92055	-264.97565	180.79150	78.49734	-295.52267	-194.80731	97.55228	324.08795	175.77266	30.30018	360.79245	83.83716	1087.66455	-571.70337	-93.90388	561.30133	-411.75668	66.61780	560.85077	-412.61142	-88.59299	570.63727	534.83575	68.50585	564.62274	535.64813	
4318	43.170	-205.62830	5.63964	-264.93967	182.22423	90.41206	-294.32675	-196.32413	110.29411	325.30258	177.10077	30.40315	360.79532	84.02627	1086.49048	-572.08514	-92.87389	560.57678	-411.13461	67.01025	559.99976	-412.44321	-87.24589	571.09503	535.11078	70.33027	564.11157	535.84100	
4319	43.180	-204.81772	5.56357	-264.73917	183.10518	101.34320	-292.93115	-195.14644	120.92513	327.57889	177.73924	30.11863	360.83499	84.25693	1086.01282	-572.91235	-92.17998	560.02771	-410.63596	67.61473	558.99994	-412.32068	-85.92671	571.10968	535.93188	71.74583	564.05267	535.97888	
4320	43.190	-204.08022	5.36579	-264.73077	182.46114	111.49714	-291.69125	-194.95549	130.96153	330.06613	178.77579	30.14964	360.88416	85.08289	1085.33301	-573.27606	-92.28516	559.44885	-410.68301	67.89786	558.06818	-411.79279	-84.69823	571.46509	536.02753	72.92324	564.35150	536.07465	
4321	43.200	-202.96527	5.09582	-264.71167	181.64801	119.92947	-290.49872	-194.25958	139.95427	332.03888	180.22333	30.27285	360.87238	86.76704	1084.03442	-573.28992	-91.21119	558.59583	-409.97809	68.62735	557.33771	-411.96179	-83.27583	571.90363	536.24506	74.75069	564.60065	535.65759	
4322	43.210	-201.96376	5.09296	-264.57996	181.19148	125.97892	-288.75482	-194.23766	148.36954	333.77991	180.55234	30.18325	360.71243	87.89052	1082.87000	-573.23761	-91.67882	558.48260	-410.22372	68.82715	556.85944	-411.92087	-81.85655	572.43903	536.46033	75.88208	565.10260	536.52417	
4323	43.220	-201.34334	5.03791	-264.43027	180.95738	129.41589	-287.04062	-193.85384	153.30138	335.90802	181.94580	30.40844	360.64774	89.47810	1082.08142	-573.74207	-90.77200	558.07428	-409.60574	69.20214	556.05408	-410.94507	-80.46743	572.96881	536.67859	77.54021	565.33447	537.56177	
4324	43.230	-200.09311	4.79220	-264.18356	181.93544	130.06908	-285.21390	-193.16019	154.96451	338.18494	182.69542	30.39876	360.61807	90.15678	1081.32764	-574.24963	-89.60722	557.18958	-408.70148	70.04402	555.30469	-411.01779	-78.59811	573.78247	537.88208	79.02187	565.54700	536.35352	
